<svg width="111" height="93" viewBox="0 0 111 93" fill="none" xmlns="http://www.w3.org/2000/svg">
<mask id="mask0_1310_5458" style="mask-type:alpha" maskUnits="userSpaceOnUse" x="0" y="0" width="111" height="93">
<rect x="0.5" width="110" height="93" fill="#D9D9D9"/>
</mask>
<g mask="url(#mask0_1310_5458)">
<path d="M15.8104 69.6667C13.9375 69.6667 12.3343 69.0191 11.0005 67.7239C9.66684 66.4287 9 64.8434 9 62.968V12.1987C9 10.3869 9.66351 8.81749 10.9905 7.49054C12.3176 6.16351 13.887 5.5 15.6988 5.5H84.8013C86.6131 5.5 88.1825 6.16351 89.5096 7.49054C90.8366 8.81749 91.5001 10.3869 91.5001 12.1987V35.468H87.6218V12.7276L52.1568 36.0938C51.8454 36.2524 51.5355 36.3763 51.2269 36.4655C50.9185 36.5545 50.5928 36.5991 50.25 36.5991C49.9072 36.5991 49.5816 36.5545 49.2732 36.4655C48.9646 36.3763 48.6743 36.2524 48.402 36.0938L12.8782 12.7276V62.968C12.8782 63.7906 13.1426 64.4664 13.6714 64.9952C14.2003 65.5241 14.8761 65.7885 15.6988 65.7885H65.5866V69.6667H15.8104ZM50.25 32.759L86.2116 9.37819H14.2885L50.25 32.759ZM12.8782 13.5855V9.37819V10.5856V10.5231V13.5855ZM88.0685 87.8238C84.1433 87.8238 80.8253 86.4482 78.1144 83.6971C75.4036 80.9459 74.0482 77.605 74.0482 73.6742V51.5096C74.0482 49.319 74.8188 47.4492 76.3602 45.9004C77.9016 44.3514 79.7885 43.577 82.0209 43.577C84.2104 43.577 86.0732 44.3514 87.6093 45.9004C89.1455 47.4492 89.9136 49.319 89.9136 51.5096V71.9583C89.9136 72.5078 89.7261 72.9683 89.351 73.34C88.976 73.7116 88.5113 73.8974 87.957 73.8974C87.4025 73.8974 86.9437 73.7116 86.5804 73.34C86.217 72.9683 86.0353 72.5078 86.0353 71.9583V51.425C86.0353 50.2216 85.6534 49.1973 84.8895 48.3523C84.1256 47.5074 83.162 47.0849 81.9985 47.0849C80.835 47.0849 79.8655 47.5074 79.0898 48.3523C78.3142 49.1973 77.9263 50.2126 77.9263 51.398V73.7682C77.9263 76.6284 78.906 79.0955 80.8652 81.1695C82.8245 83.2435 85.2401 84.2805 88.1119 84.2805C90.8819 84.2805 93.2262 83.2621 95.1447 81.2253C97.0632 79.1885 98.0225 76.7459 98.0225 73.8974V56.2046C98.0225 55.6552 98.21 55.1947 98.585 54.823C98.96 54.4513 99.4247 54.2655 99.9792 54.2655C100.534 54.2655 100.992 54.4513 101.356 54.823C101.719 55.1947 101.901 55.6552 101.901 56.2046V73.8974C101.901 77.7409 100.551 81.0229 97.8522 83.7432C95.153 86.4636 91.8918 87.8238 88.0685 87.8238Z" fill="#1C1B1F"/>
</g>
</svg>
