<svg width="24" height="24" viewBox="0 0 24 24" fill="none" xmlns="http://www.w3.org/2000/svg">
<mask id="mask0_2362_8139" style="mask-type:alpha" maskUnits="userSpaceOnUse" x="0" y="0" width="24" height="24">
<rect width="24" height="24" fill="#D9D9D9"/>
</mask>
<g mask="url(#mask0_2362_8139)">
<path d="M12 13.0634L8.75381 16.3096C8.60895 16.4545 8.4333 16.5253 8.22689 16.5221C8.02049 16.5189 7.84485 16.4448 7.69999 16.3C7.55512 16.1551 7.48269 15.9779 7.48269 15.7682C7.48269 15.5586 7.55512 15.3814 7.69999 15.2365L10.9366 12L7.69036 8.7788C7.5455 8.63393 7.47467 8.45669 7.47789 8.24707C7.48109 8.03746 7.55512 7.86021 7.69999 7.71535C7.84485 7.57048 8.0221 7.49805 8.23171 7.49805C8.44131 7.49805 8.61855 7.57048 8.76341 7.71535L12 10.9615L15.2212 7.71535C15.366 7.57048 15.5417 7.49805 15.7481 7.49805C15.9545 7.49805 16.1301 7.57048 16.275 7.71535C16.4301 7.87048 16.5077 8.05029 16.5077 8.25477C16.5077 8.45926 16.4301 8.63393 16.275 8.7788L13.0384 12L16.2846 15.2461C16.4295 15.391 16.5019 15.5667 16.5019 15.7731C16.5019 15.9795 16.4295 16.1551 16.2846 16.3C16.1295 16.4551 15.9497 16.5326 15.7452 16.5326C15.5407 16.5326 15.366 16.4551 15.2212 16.3L12 13.0634Z" fill="#344054"/>
</g>
</svg>
