<svg width="36" height="36" viewBox="0 0 36 36" fill="none" xmlns="http://www.w3.org/2000/svg">
<rect width="36" height="36" rx="18" fill="#E8E8E8"/>
<mask id="mask0_2935_9668" style="mask-type:alpha" maskUnits="userSpaceOnUse" x="8" y="8" width="20" height="20">
<rect x="8" y="8" width="20" height="20" fill="#F1F1F1"/>
</mask>
<g mask="url(#mask0_2935_9668)">
<path d="M18 19.4905L12.7833 24.7072C12.5881 24.9024 12.3397 25 12.038 25C11.7364 25 11.488 24.9024 11.2928 24.7072C11.0976 24.512 11 24.2636 11 23.962C11 23.6603 11.0976 23.4119 11.2928 23.2167L16.5095 18L11.2928 12.7833C11.0976 12.5881 11 12.3397 11 12.038C11 11.7364 11.0976 11.488 11.2928 11.2928C11.488 11.0976 11.7364 11 12.038 11C12.3397 11 12.5881 11.0976 12.7833 11.2928L18 16.5095L23.2167 11.2928C23.4119 11.0976 23.6603 11 23.962 11C24.2636 11 24.512 11.0976 24.7072 11.2928C24.9024 11.488 25 11.7364 25 12.038C25 12.3397 24.9024 12.5881 24.7072 12.7833L19.4905 18L24.7072 23.2167C24.9024 23.4119 25 23.6603 25 23.962C25 24.2636 24.9024 24.512 24.7072 24.7072C24.512 24.9024 24.2636 25 23.962 25C23.6603 25 23.4119 24.9024 23.2167 24.7072L18 19.4905Z" fill="#1C1B1F"/>
</g>
</svg>
