<svg width="48" height="48" viewBox="0 0 48 48" fill="none" xmlns="http://www.w3.org/2000/svg">
<mask id="mask0_616_22630" style="mask-type:alpha" maskUnits="userSpaceOnUse" x="0" y="0" width="48" height="48">
<rect width="48" height="48" fill="#D9D9D9"/>
</mask>
<g mask="url(#mask0_616_22630)">
<path d="M41.2077 44.469L35.3808 38.6037H12.5538C9.86412 38.6037 7.59938 37.6941 5.75965 35.8748C3.91995 34.0556 3.0001 31.8011 3.0001 29.1114C3.0001 26.5345 3.84175 24.3973 5.52505 22.6999C7.20838 21.0025 9.23338 20.0371 11.6 19.8038C11.6411 19.2858 11.7686 18.655 11.9827 17.9114C12.1968 17.1678 12.4693 16.5306 12.8 15.9998L4.76935 7.96909L6.3693 6.36914L42.8384 42.8383L41.2077 44.469ZM12.5538 36.3344H33.1539L14.6154 17.7959C14.2231 18.36 13.943 19.0197 13.775 19.7748C13.6071 20.53 13.5231 21.2716 13.5231 21.9998H12.5538C10.5256 21.9998 8.8045 22.6646 7.3904 23.9941C5.9763 25.3236 5.26925 26.9983 5.26925 29.0182C5.26925 31.0382 5.9763 32.7626 7.3904 34.1913C8.8045 35.6201 10.5256 36.3344 12.5538 36.3344ZM42.1422 37.0921L40.3693 35.319C41.1128 34.7652 41.6923 34.1531 42.1077 33.4827C42.5231 32.8123 42.7307 32.0219 42.7307 31.1114C42.7307 29.6942 42.2215 28.4828 41.203 27.4773C40.1846 26.4718 38.9695 25.9691 37.5577 25.9691H34.2846V21.9191C34.2846 19.037 33.2811 16.6075 31.2742 14.6306C29.2673 12.6537 26.8239 11.6652 23.9438 11.6652C23.0069 11.6652 22.0288 11.8056 21.0096 12.0864C19.9904 12.3672 19.05 12.8152 18.1885 13.4306L16.6077 11.8114C17.8077 10.9473 19.0033 10.3287 20.1943 9.95564C21.3853 9.58258 22.6269 9.39604 23.9192 9.39604C27.4047 9.39604 30.3819 10.6285 32.8506 13.0934C35.3194 15.5583 36.5538 18.5271 36.5538 21.9998V23.7614H37.1692C39.3512 23.7153 41.2019 24.3915 42.7211 25.7902C44.2403 27.189 45 28.9627 45 31.1114C45 32.1242 44.773 33.1857 44.3191 34.2959C43.8653 35.4062 43.1397 36.3383 42.1422 37.0921Z" fill="#667085"/>
</g>
</svg>
