<svg width="26" height="26" viewBox="0 0 26 26" fill="none" xmlns="http://www.w3.org/2000/svg">
<rect width="26" height="26" rx="4" fill="#F47920"/>
<mask id="mask0_2996_27939" style="mask-type:alpha" maskUnits="userSpaceOnUse" x="1" y="1" width="24" height="24">
<rect x="1" y="1" width="24" height="24" fill="#D9D9D9"/>
</mask>
<g mask="url(#mask0_2996_27939)">
<path d="M13 17L8 12L9.4 10.55L12 13.15V5H14V13.15L16.6 10.55L18 12L13 17ZM7 21C6.45 21 5.97917 20.8042 5.5875 20.4125C5.19583 20.0208 5 19.55 5 19V16H7V19H19V16H21V19C21 19.55 20.8042 20.0208 20.4125 20.4125C20.0208 20.8042 19.55 21 19 21H7Z" fill="white"/>
</g>
</svg>
