<svg width="28" height="22" viewBox="0 0 28 22" fill="none" xmlns="http://www.w3.org/2000/svg">
<rect x="0.5" width="27" height="22" rx="11" fill="#D92D20"/>
<path d="M10.5339 15.081C10.301 15.081 10.1007 14.9986 9.93306 14.8338C9.76545 14.6662 9.68164 14.4645 9.68164 14.2287C9.68164 13.9957 9.76545 13.7969 9.93306 13.6321C10.1007 13.4645 10.301 13.3807 10.5339 13.3807C10.7669 13.3807 10.9672 13.4645 11.1348 13.6321C11.3024 13.7969 11.3862 13.9957 11.3862 14.2287C11.3862 14.3849 11.3464 14.5284 11.2669 14.6591C11.1902 14.7869 11.0879 14.8892 10.96 14.9659C10.8322 15.0426 10.6902 15.081 10.5339 15.081ZM17.4597 15.081C17.2267 15.081 17.0265 14.9986 16.8588 14.8338C16.6912 14.6662 16.6074 14.4645 16.6074 14.2287C16.6074 13.9957 16.6912 13.7969 16.8588 13.6321C17.0265 13.4645 17.2267 13.3807 17.4597 13.3807C17.6926 13.3807 17.8929 13.4645 18.0605 13.6321C18.2282 13.7969 18.312 13.9957 18.312 14.2287C18.312 14.3849 18.2722 14.5284 18.1926 14.6591C18.1159 14.7869 18.0137 14.8892 17.8858 14.9659C17.758 15.0426 17.6159 15.081 17.4597 15.081Z" fill="#D92D20"/>
<path d="M14.6994 6.27273L14.5886 12.4901H13.4082L13.2974 6.27273H14.6994ZM14.0005 15.081C13.7647 15.081 13.563 14.9986 13.3954 14.8338C13.2278 14.6662 13.1454 14.4645 13.1483 14.2287C13.1454 13.9957 13.2278 13.7969 13.3954 13.6321C13.563 13.4645 13.7647 13.3807 14.0005 13.3807C14.2306 13.3807 14.4295 13.4645 14.5971 13.6321C14.7647 13.7969 14.85 13.9957 14.8528 14.2287C14.85 14.3849 14.8088 14.5284 14.7292 14.6591C14.6525 14.7869 14.5502 14.8892 14.4224 14.9659C14.2946 15.0426 14.1539 15.081 14.0005 15.081Z" fill="white"/>
</svg>
