<svg width="136" height="66" viewBox="0 0 136 66" fill="none" xmlns="http://www.w3.org/2000/svg">
<g clip-path="url(#clip0_457_1248)">
<path d="M5.39449 16.8676C5.9085 16.8298 6.3074 16.9944 6.59386 17.3667C6.88032 17.7391 7.01685 18.1573 7.00882 18.6214C6.99811 19.0882 6.83748 19.5172 6.52425 19.9058C6.21102 20.297 5.72913 20.4913 5.08126 20.4913H3.62488C3.12961 20.4913 2.78157 20.3321 2.58346 20.0164C2.38268 19.7007 2.28362 19.4174 2.28362 19.1664L2.25417 5.52696L4.1389 4.31816L3.65433 3.77043L2.19795 4.63385L0 4.06453V2.65606L2.1685 3.34681L3.50976 2.54004H5.56583L6.85087 3.98089L5.39449 5.36507V16.8676ZM5.39449 19.3985C5.39449 19.4956 5.42394 19.5577 5.48016 19.5847C5.53638 19.6143 5.58457 19.617 5.62205 19.5982C5.84961 19.5793 6.01559 19.4632 6.12268 19.2528C6.22709 19.0423 6.27528 18.8211 6.26457 18.5917C6.25386 18.3624 6.1789 18.1519 6.03701 17.9576C5.89512 17.7661 5.68095 17.6689 5.39449 17.6689V19.3958V19.3985Z" fill="#2E3192"/>
<path d="M19.0882 18.0923C18.5768 20.7905 18.2583 22.4931 18.1324 23.2H15.8863L16.3173 21.0091C17.257 16.352 17.7282 13.9748 17.7282 13.8777C17.7282 13.6538 17.6773 13.4649 17.5729 13.3111C17.4685 13.16 17.3132 13.0817 17.1071 13.0817C16.5823 13.0817 15.9131 13.5836 15.0992 14.5873C14.2853 15.5911 13.5304 16.8754 12.829 18.4404C12.1275 20.0054 11.6349 21.5919 11.3458 23.1973C11.1075 23.2459 10.7729 23.2702 10.3419 23.2702C9.86266 23.2702 9.5066 23.2459 9.26566 23.1973C9.41022 22.8277 9.52802 22.4337 9.6244 22.0182C9.72077 21.6 9.83054 21.0388 9.95904 20.3318L11.4877 12.936C11.4877 12.6473 11.4074 12.5016 11.2494 12.5016C10.9951 12.5016 10.7916 12.7499 10.639 13.249C10.4864 13.7482 10.4115 14.2689 10.4115 14.814C10.4115 15.1675 10.4516 15.5209 10.532 15.8744C9.79841 15.6828 9.43164 15.1432 9.43164 14.2609C9.43164 13.732 9.55211 13.2463 9.79038 12.8038C10.0286 12.3613 10.3392 12.0132 10.722 11.7569C11.1049 11.5006 11.5038 11.3711 11.916 11.3711C12.3283 11.3711 12.6978 11.5087 12.9682 11.7812C13.2386 12.0537 13.3751 12.4315 13.3751 12.9144C13.3751 13.106 13.2627 13.6618 13.0405 14.5765C12.8183 15.4912 12.6737 16.0848 12.6094 16.3601C12.5612 16.5058 12.505 16.7216 12.4435 17.0103C13.177 15.4049 14.0016 14.0558 14.9172 12.963C15.8327 11.8702 16.7698 11.3252 17.7255 11.3252C18.2984 11.3252 18.8044 11.5222 19.2435 11.9161C19.6825 12.31 19.902 12.8281 19.902 13.4703C19.902 13.759 19.6316 15.2997 19.0882 18.095V18.0923Z" fill="#2E3192"/>
<path d="M29.149 9.62818H31.6521V16.3036C31.6521 16.9619 31.5558 17.5636 31.363 18.1087C31.1702 18.651 30.8677 19.1178 30.4581 19.5063C30.0485 19.8949 29.5158 20.1944 28.8599 20.4075C28.2039 20.6207 27.4169 20.7286 26.4906 20.7286C25.8347 20.7286 25.2403 20.6531 24.6995 20.5047C24.1614 20.3563 23.6956 20.1296 23.3047 19.8247C22.9139 19.5198 22.6087 19.1394 22.3891 18.6807C22.1696 18.222 22.0625 17.6877 22.0625 17.0806C22.0625 16.4735 22.2446 15.9258 22.6113 15.4806C22.9781 15.0354 23.4413 14.7602 24.0062 14.655C23.7625 14.6037 23.5243 14.4958 23.294 14.3339C23.0638 14.172 22.855 13.9777 22.6676 13.751C22.4802 13.5244 22.3329 13.2654 22.2258 12.974C22.1161 12.6826 22.0625 12.3831 22.0625 12.0728C22.0625 11.7112 22.1295 11.3712 22.266 11.0528C22.3999 10.7371 22.5926 10.4619 22.8443 10.2272C23.0932 9.99513 23.4038 9.80896 23.7679 9.67405C24.1347 9.53914 24.5469 9.47168 25.0101 9.47168C25.4973 9.47168 25.9257 9.50676 26.2898 9.57961C26.6565 9.64976 26.9725 9.75229 27.2428 9.87911L26.9912 11.7625C26.7717 11.6734 26.5602 11.606 26.3567 11.5682C26.1506 11.5304 25.9578 11.5088 25.7784 11.5088C25.3554 11.5088 25.0315 11.5952 24.8066 11.7706C24.5817 11.9459 24.4693 12.1807 24.4693 12.4802C24.4693 12.8552 24.6112 13.144 24.8923 13.3436C25.1734 13.5433 25.4813 13.6431 25.8159 13.6431H27.2803L27.4918 15.5831H26.1827C25.6553 15.5831 25.2484 15.7127 24.9592 15.9717C24.6701 16.2307 24.5255 16.5869 24.5255 17.0402C24.5255 17.5717 24.7183 17.9819 25.1038 18.2733C25.4893 18.5647 25.9712 18.7104 26.5468 18.7104C27.4062 18.7104 28.054 18.4918 28.4904 18.052C28.9268 17.6122 29.1463 17.024 29.1463 16.2874V9.63087L29.149 9.62818Z" fill="#2E3192"/>
<path d="M34.8058 19.2014C34.5194 18.8803 34.3748 18.4864 34.3748 18.0223C34.3748 17.3154 34.6934 15.6614 35.3306 13.0603L35.7375 11.1581C35.8017 10.756 35.8821 10.238 35.9758 9.60388C36.0721 8.9698 36.1578 8.3708 36.2381 7.80957H38.3424L38.1978 8.72427C38.0532 9.63896 37.9515 10.273 37.8873 10.6265C37.7427 11.3496 37.4723 12.5692 37.0734 14.288C36.5942 16.3602 36.3559 17.5798 36.3559 17.9495C36.3559 18.2544 36.4603 18.4082 36.6665 18.4082C36.9208 18.4082 37.1136 18.2193 37.2394 17.8415C37.3679 17.4638 37.4295 17.0348 37.4295 16.5518C37.4295 16.0688 37.3652 15.718 37.2394 15.4428C38.1148 15.6992 38.5539 16.2307 38.5539 17.0321C38.5539 17.4665 38.4414 17.8874 38.2192 18.2975C37.997 18.7077 37.6892 19.0395 37.2983 19.2986C36.9074 19.5549 36.4817 19.6844 36.0186 19.6844C35.4939 19.6844 35.0869 19.5225 34.8005 19.2014H34.8058ZM41.0195 19.2014C40.7331 18.8803 40.5885 18.4864 40.5885 18.0223C40.5885 17.3154 40.9071 15.6614 41.5443 13.0603L41.9512 11.1581C42.0154 10.756 42.0958 10.238 42.1895 9.60388C42.2858 8.9698 42.3715 8.3708 42.4518 7.80957H44.5561L44.4115 8.72427C44.2669 9.63896 44.1652 10.273 44.101 10.6265C43.9564 11.3496 43.686 12.5692 43.2871 14.288C42.8079 16.3602 42.5696 17.5798 42.5696 17.9495C42.5696 18.2544 42.674 18.4082 42.8802 18.4082C43.1345 18.4082 43.3273 18.2193 43.4531 17.8415C43.5816 17.4638 43.6432 17.0348 43.6432 16.5518C43.6432 16.0688 43.5789 15.718 43.4531 15.4428C44.3285 15.6992 44.7676 16.2307 44.7676 17.0321C44.7676 17.4665 44.6551 17.8874 44.4329 18.2975C44.2107 18.7077 43.9029 19.0395 43.512 19.2986C43.1211 19.5549 42.6954 19.6844 42.2323 19.6844C41.7076 19.6844 41.3006 19.5225 41.0142 19.2014H41.0195Z" fill="#F47920"/>
<path d="M50.5047 22.0478H52.6491V13.8857H50.5047V15.1943H47.4287V14.1555C47.4287 14.0125 47.4287 13.9801 47.4287 14.0557C47.4287 14.1312 47.4233 14.2608 47.4153 14.4388C47.4046 14.6196 47.4019 14.7464 47.4019 14.822C47.4019 14.8975 47.4019 14.8652 47.4019 14.7221V13.6833C47.4019 13.3245 47.5277 13.0331 47.782 12.8172C48.0364 12.5987 48.3603 12.4907 48.7565 12.4907L54.4 12.5204C54.7186 12.5204 55.0211 12.6148 55.3022 12.8037C55.5833 12.9926 55.7252 13.2867 55.7252 13.686V22.1881C55.7252 22.6252 55.5833 22.9382 55.3022 23.1271C55.0211 23.316 54.7186 23.4104 54.4 23.4104L48.7565 23.4401C48.3603 23.4401 48.0364 23.3268 47.782 23.1001C47.5277 22.8735 47.4019 22.5686 47.4019 22.1908V21.6215L47.4313 16.9563C47.4313 16.8429 47.4554 16.7053 47.5009 16.5434C47.5465 16.3815 47.6241 16.2358 47.7258 16.1036C47.8302 15.9714 47.9668 15.8581 48.1354 15.7637C48.3041 15.6692 48.5209 15.6207 48.7833 15.6207H50.2236C50.8635 15.6207 51.3373 15.8149 51.6479 16.2035C51.9584 16.592 52.1191 17.0183 52.1271 17.4824C52.1351 17.9465 52.0013 18.3701 51.7175 18.7479C51.4364 19.1283 51.0294 19.3064 50.5047 19.2875V22.0451V22.0478ZM50.5047 18.4079C50.7858 18.4079 50.9973 18.3189 51.1392 18.1381C51.2811 17.9573 51.3561 17.7549 51.3641 17.5256C51.3721 17.2989 51.3266 17.0858 51.2222 16.8861C51.1178 16.6864 50.9625 16.5677 50.7564 16.53C50.7189 16.53 50.668 16.5353 50.6011 16.5434C50.5342 16.5542 50.502 16.6055 50.502 16.6999V18.4052L50.5047 18.4079Z" fill="#F47920"/>
<path d="M59.8052 19.4899V18.5374C59.8052 16.646 59.0556 15.1026 59.0556 13.2759C59.0556 10.5966 61.0608 9.26367 63.7192 9.26367C66.0832 9.26367 68.2704 10.2836 68.2704 12.6337V19.4899H66.1983V12.6688C66.1662 11.5518 65.5451 10.8448 64.6803 10.548C64.3858 10.4482 64.078 10.3996 63.7514 10.3996C63.4087 10.3996 63.066 10.4482 62.7554 10.5804C61.8425 10.9096 61.1411 11.7298 61.1411 12.9791C61.1411 13.2247 61.1572 13.5215 61.1732 13.8344C61.2054 14.1474 61.2375 14.4604 61.2723 14.7545C61.3205 15.0513 61.3526 15.3131 61.4035 15.5424C61.4356 15.788 61.4677 15.9525 61.4838 16.0362C61.5641 15.6908 61.6471 15.2969 61.7274 14.8517C61.8077 14.4254 61.9228 14.0125 62.054 13.6348C62.2173 13.257 62.4128 12.9278 62.6751 12.6661C62.9348 12.4044 63.3123 12.2722 63.7835 12.2722C64.011 12.2722 64.2225 12.3208 64.4367 12.3882C64.6321 12.488 64.7954 12.5852 64.9588 12.7336C65.0899 12.882 65.2184 13.0466 65.3014 13.2435C65.3817 13.4243 65.4326 13.6213 65.4326 13.8344C65.4326 14.0314 65.3844 14.2284 65.3014 14.4092C65.2211 14.5899 65.0899 14.7545 64.9588 14.9029C64.7954 15.0513 64.6321 15.1647 64.4367 15.2483C64.2252 15.3293 64.0137 15.3805 63.7835 15.3805C63.6041 15.3805 63.4247 15.3481 63.2614 15.2807C63.1142 15.2159 62.9669 15.1323 62.8384 15.019C62.7581 15.1997 62.6591 15.4804 62.56 15.8419C62.461 16.2197 62.3806 16.5974 62.2816 16.9914C62.2173 17.4015 62.1343 17.7792 62.0862 18.1084C62.038 18.47 62.0058 18.6993 62.0058 18.8315V19.4899H59.8052ZM64.3055 14.3606C64.4688 14.2122 64.5331 14.0476 64.5331 13.8506C64.5331 13.6213 64.4688 13.4243 64.3055 13.2759C64.1743 13.1275 63.995 13.0466 63.7835 13.0466C63.588 13.0466 63.4247 13.1275 63.2775 13.2759C63.1302 13.4243 63.066 13.6213 63.066 13.8506C63.066 14.0476 63.1302 14.2122 63.2775 14.3606C63.4247 14.509 63.588 14.5738 63.7835 14.5738C63.995 14.5738 64.1743 14.509 64.3055 14.3606Z" fill="#F47920"/>
<path d="M71.301 18.0682C71.1698 17.936 71.1028 17.7282 71.1028 17.4476V8.99947C71.1028 8.503 71.3411 8.25476 71.823 8.25476H73.1295C73.3062 8.25476 73.4373 8.28984 73.5257 8.35999C73.614 8.43014 73.6649 8.54887 73.6783 8.71346L73.7158 9.32325C74.5216 8.42205 75.6888 7.96875 77.2175 7.96875C78.3392 7.96875 79.2414 8.27365 79.9241 8.88344C80.6041 9.49324 80.9468 10.389 80.9468 11.5736V17.4476C80.9468 17.7282 80.8799 17.9333 80.7487 18.0682C80.6175 18.2004 80.398 18.2678 80.0954 18.2678H78.6765C78.3606 18.2678 78.1384 18.2004 78.0046 18.0682C77.8734 17.936 77.8065 17.7282 77.8065 17.4476V11.6707C77.8065 11.1499 77.678 10.7668 77.4183 10.5267C77.1586 10.2865 76.7651 10.1651 76.235 10.1651C75.6299 10.1651 75.1427 10.3189 74.7786 10.6238C74.4118 10.9287 74.2298 11.3037 74.2298 11.7489V17.4503C74.2298 17.7309 74.1655 17.936 74.0397 18.0709C73.9139 18.2031 73.6917 18.2705 73.3784 18.2705H71.9783C71.6624 18.2705 71.4402 18.2031 71.3063 18.0709L71.301 18.0682Z" fill="#F47920"/>
<path d="M72.5967 6.60603C72.4843 6.48461 72.4254 6.27955 72.4254 5.98544V5.39453C72.4254 5.10313 72.4816 4.89267 72.5967 4.76585C72.7091 4.63903 72.918 4.57428 73.2205 4.57428H78.4436V3.46801C78.4436 3.18739 78.5025 2.99852 78.623 2.89599C78.7435 2.79345 78.9282 2.74219 79.1825 2.74219H80.2052C80.4569 2.74219 80.6443 2.79345 80.7621 2.89599C80.8825 2.99852 80.9414 3.18739 80.9414 3.46801V5.77498C80.9414 6.15543 80.8745 6.41985 80.7433 6.56556C80.6121 6.71126 80.3498 6.78411 79.9589 6.78411H73.2232C72.9206 6.78411 72.7118 6.72475 72.5994 6.60333L72.5967 6.60603Z" fill="#F47920"/>
<path d="M91.1816 11.8731L92.6058 16.6652C92.7477 17.1185 92.8655 17.6257 92.9619 18.1896C93.0583 18.7536 93.1573 19.4416 93.2591 20.2565H93.318C93.318 19.4929 93.3313 18.8399 93.3554 18.2976C93.3822 17.7552 93.425 17.2102 93.4893 16.6678L94.3942 7.64502H96.7233L94.9912 22.1992H92.314L90.7934 17.2318C90.6381 16.6894 90.4909 16.1228 90.3517 15.5346C90.2098 14.9464 90.108 14.3609 90.0438 13.7781H89.9849C89.9206 14.3609 89.8403 14.9464 89.7439 15.5346C89.6476 16.1228 89.5217 16.6894 89.3691 17.2318L87.8485 22.1992H85.0964L83.2679 11.3335H85.7121L86.5581 16.6705C86.6224 17.0456 86.6839 17.5205 86.7402 18.0979C86.7991 18.6726 86.8339 19.3957 86.8473 20.2619H86.9062C86.9436 19.8356 86.9891 19.4497 87.04 19.107C87.0909 18.7644 87.1471 18.4514 87.2033 18.1654C87.2622 17.882 87.3184 17.6203 87.3773 17.3802C87.4362 17.14 87.4951 16.9053 87.5594 16.6705L88.8498 11.8785H91.1789L91.1816 11.8731Z" fill="#F47920"/>
<path d="M99.4112 20.2942C99.28 20.162 99.2131 19.9543 99.2131 19.6737V11.2255C99.2131 10.7291 99.4513 10.4808 99.9332 10.4808H101.24C101.416 10.4808 101.548 10.5159 101.636 10.5861C101.724 10.6562 101.775 10.7749 101.789 10.9395L101.826 11.5493C102.632 10.6481 103.799 10.1948 105.328 10.1948C106.449 10.1948 107.352 10.4997 108.034 11.1095C108.714 11.7193 109.057 12.6151 109.057 13.7996V19.6737C109.057 19.9543 108.99 20.1593 108.859 20.2942C108.728 20.4265 108.508 20.4939 108.206 20.4939H106.787C106.471 20.4939 106.249 20.4265 106.115 20.2942C105.981 20.162 105.917 19.9543 105.917 19.6737V13.8941C105.917 13.3733 105.788 12.9929 105.529 12.75C105.269 12.5099 104.875 12.3885 104.345 12.3885C103.74 12.3885 103.253 12.5423 102.889 12.8472C102.522 13.1521 102.34 13.5271 102.34 13.9723V19.6737C102.34 19.9543 102.276 20.1593 102.15 20.2942C102.024 20.4265 101.802 20.4939 101.489 20.4939H100.089C99.7726 20.4939 99.5504 20.4265 99.4165 20.2942H99.4112Z" fill="#2E3192"/>
<path d="M106.677 25.51C106.557 25.3832 106.498 25.1782 106.498 24.9002V23.6024H105.855C105.628 23.6024 105.475 23.5565 105.392 23.4702C105.309 23.3811 105.269 23.2219 105.269 22.9926V22.059C105.269 21.8432 105.309 21.6867 105.392 21.5922C105.475 21.4978 105.622 21.4492 105.836 21.4492H108.222C108.524 21.4492 108.738 21.5167 108.864 21.6489C108.99 21.7811 109.054 21.9889 109.054 22.2695V24.9002C109.054 25.1808 108.995 25.3832 108.875 25.51C108.754 25.6368 108.543 25.7016 108.24 25.7016H107.314C107.012 25.7016 106.8 25.6368 106.68 25.51H106.677Z" fill="#2E3192"/>
<path d="M118.92 18.8505V12.0968C118.92 11.3197 118.711 10.7396 118.293 10.3511C117.876 9.96254 117.308 9.76826 116.591 9.76826C116.32 9.76826 116.055 9.80334 115.793 9.87619C115.53 9.94635 115.287 10.0435 115.062 10.1676C114.837 10.2917 114.639 10.432 114.465 10.5939C114.291 10.7558 114.16 10.9204 114.071 11.0877L115.688 12.4665C115.289 12.6095 114.99 12.8253 114.783 13.1167C114.577 13.4082 114.476 13.7994 114.476 14.2905V18.8505H111.972V14.3094C111.972 13.8965 112.069 13.5269 112.262 13.2031C112.454 12.8793 112.698 12.6284 112.992 12.4476L111.432 11.1659C111.56 10.7261 111.782 10.3025 112.096 9.89508C112.409 9.48765 112.792 9.12609 113.241 8.8077C113.691 8.49201 114.205 8.23568 114.781 8.04141C115.359 7.84714 115.98 7.75 116.649 7.75C117.42 7.75 118.1 7.85793 118.689 8.07109C119.278 8.28425 119.776 8.58105 120.181 8.9642C120.585 9.34465 120.893 9.80604 121.104 10.343C121.316 10.8799 121.423 11.4654 121.423 12.0995V18.8532H118.92V18.8505Z" fill="#2E3192"/>
<path d="M131.197 11.7407C131.275 11.5653 131.39 11.371 131.564 11.1929C131.738 11.0175 132.049 10.9204 132.493 10.9204C132.782 10.9393 133.111 11.0175 133.5 11.1363C133.866 11.2523 134.236 11.4304 134.584 11.7029C134.932 11.9376 135.224 12.2884 135.475 12.6796C135.727 13.1087 135.842 13.6159 135.842 14.2203V22.8654H133.363V14.2392C133.344 13.6726 133.267 13.2625 133.074 12.9711C132.919 12.6796 132.667 12.4827 132.378 12.3855L128.64 22.8654H126.006V15.6234C125.947 15.6423 125.851 15.6423 125.736 15.6423C125.406 15.6423 125.117 15.5829 124.826 15.448C124.536 15.332 124.282 15.1755 124.089 14.9408C123.856 14.7465 123.701 14.4928 123.586 14.1987C123.449 13.9073 123.393 13.6132 123.393 13.2813C123.393 12.9495 123.452 12.6581 123.586 12.364C123.701 12.0725 123.856 11.8162 124.089 11.6219C124.282 11.3872 124.534 11.2307 124.826 11.1147C125.115 10.9771 125.406 10.9204 125.736 10.9204C126.587 10.9204 127.264 11.1552 127.77 11.6031C128.255 12.051 128.507 12.6581 128.507 13.3974V19.2714L131.197 11.738V11.7407ZM126.453 14.0045C126.646 13.8102 126.742 13.5755 126.742 13.2813C126.742 13.0277 126.646 12.793 126.453 12.5987C126.26 12.3828 126.028 12.2857 125.736 12.2857C125.465 12.2857 125.232 12.3828 125.018 12.5987C124.826 12.793 124.729 13.0277 124.729 13.2813C124.729 13.5728 124.826 13.8075 125.018 14.0045C125.232 14.1987 125.463 14.2959 125.736 14.2959C126.025 14.2959 126.258 14.1987 126.453 14.0045Z" fill="#2E3192"/>
<path d="M135.845 8.71596L136 9.12609L135.593 9.22323C134.605 9.00737 133.657 8.85357 132.785 8.73485C131.915 8.63772 131.101 8.57836 130.324 8.57836C129.685 8.57836 128.97 8.61613 128.215 8.71596C127.46 8.8131 126.686 8.95071 125.854 9.12609C125.912 8.48122 126.068 7.93618 126.338 7.46669C126.627 6.9972 126.978 6.60866 127.404 6.31455C127.829 6.00156 128.295 5.76951 128.817 5.61302C129.339 5.47541 129.864 5.39716 130.405 5.39716C130.697 5.39716 130.986 5.41605 131.296 5.47541C131.626 5.53477 131.936 5.61302 132.244 5.69126C132.554 5.80729 132.844 5.90712 133.114 6.04203C133.406 6.15806 133.657 6.29566 133.869 6.45216V4.7334H135.845V8.71596ZM132.437 6.97831C131.915 6.70579 131.352 6.5493 130.771 6.53041C130.209 6.51152 129.669 6.60866 129.144 6.82452C128.622 7.05926 128.215 7.42892 127.904 7.95777C128.951 7.82016 129.939 7.76349 130.846 7.80127C131.757 7.80127 132.726 7.91729 133.751 8.11426C133.422 7.62588 132.977 7.25623 132.434 6.98101L132.437 6.97831Z" fill="#2E3192"/>
<path d="M133.909 0.5H135.845V3.79722H133.909V0.5Z" fill="#2E3192"/>
<path d="M11.3833 46.7369C10.7702 46.1973 10.465 45.4634 10.465 44.5352C10.465 43.3669 10.8505 42.5331 11.6189 42.0366C12.3872 41.5402 13.4742 41.2919 14.8743 41.2919H17.522V40.9304C17.522 40.3449 17.3453 39.9158 16.992 39.6433C16.6386 39.3708 16.0201 39.2332 15.1367 39.2332C14.7083 39.2332 14.2639 39.2872 13.8035 39.3951C13.343 39.503 12.9361 39.646 12.5827 39.8241C12.406 39.8997 12.2989 39.9374 12.2614 39.9374C12.149 39.9374 12.0472 39.8538 11.9589 39.6892L11.3164 38.5452C11.2521 38.4183 11.2227 38.3104 11.2227 38.2214C11.2227 38.0946 11.2923 37.9866 11.4315 37.8976C11.9348 37.5927 12.5639 37.3606 13.3135 37.2014C14.0631 37.0422 14.8556 36.964 15.6882 36.964C16.4699 36.964 17.1526 37.0396 17.7309 37.1933C18.1967 36.9019 18.6331 36.6726 19.0373 36.508C19.4416 36.3434 19.7441 36.2598 19.9449 36.2598C20.1216 36.2598 20.2501 36.2787 20.3331 36.3164C20.416 36.3542 20.4749 36.4298 20.5124 36.5458L20.9675 37.7654C20.9916 37.8679 21.005 37.9435 21.005 37.9947C21.005 38.1485 20.9033 38.2672 20.7025 38.3563L19.9074 38.699C20.159 38.9904 20.3464 39.3303 20.4669 39.7189C20.5874 40.1074 20.6463 40.5985 20.6463 41.1975V46.4428C20.6463 46.7234 20.5794 46.9285 20.4482 47.0634C20.317 47.1956 20.0921 47.2631 19.7762 47.2631H18.376C18.0735 47.2631 17.8567 47.1956 17.7228 47.0634C17.589 46.9312 17.5247 46.7234 17.5247 46.4428V43.41H14.9145C14.371 43.41 13.9801 43.4883 13.7419 43.6475C13.5009 43.8067 13.3831 44.09 13.3831 44.4974C13.3831 44.8779 13.4795 45.145 13.6776 45.2988C13.8731 45.4526 14.1729 45.5281 14.5772 45.5281C14.8663 45.5281 15.1768 45.4634 15.5035 45.3366C15.5784 45.3123 15.6239 45.2988 15.6346 45.2988C15.7605 45.2988 15.8435 45.3878 15.8809 45.5659L16.1835 46.7666C16.1968 46.8044 16.2022 46.8503 16.2022 46.8988C16.2022 46.9636 16.1808 47.0175 16.1353 47.0607C16.0898 47.1066 16.0175 47.1525 15.9184 47.2037C15.3749 47.4331 14.6762 47.5464 13.8168 47.5464C12.8075 47.5464 11.9964 47.2766 11.386 46.7369H11.3833Z" fill="#2E3192"/>
<path d="M16.0175 35.4286C15.8087 35.1938 15.7043 34.8161 15.7043 34.2926V33.0353C15.7043 32.7169 15.7632 32.5037 15.8836 32.3958C16.0041 32.2879 16.2156 32.2339 16.5181 32.2339H17.4069C17.6961 32.2339 17.9022 32.2905 18.0227 32.4066C18.1432 32.5199 18.202 32.7304 18.202 33.0353V33.9122C18.8205 33.8366 19.5487 33.7665 20.3866 33.7017C21.2246 33.637 21.8724 33.6073 22.3249 33.6073C22.6274 33.6073 22.8282 33.6639 22.9299 33.78C23.0317 33.8933 23.0825 34.093 23.0825 34.3709V35.0184C23.0825 35.2991 23.0317 35.496 22.9299 35.6094C22.8282 35.7227 22.6274 35.782 22.3249 35.782H17.1205C16.5904 35.782 16.2209 35.666 16.0148 35.4286H16.0175Z" fill="#2E3192"/>
<path d="M28.1316 42.3386C27.8024 42.3386 27.5186 42.2523 27.283 42.0769C27.0447 41.9015 26.8627 41.6856 26.7342 41.4293C26.6057 41.173 26.5414 40.8897 26.5414 40.5875C26.5414 40.2853 26.611 39.9992 26.7476 39.7321C26.8841 39.465 27.0849 39.2438 27.3499 39.0684C27.615 38.893 27.9576 38.8066 28.3779 38.8066H29.829C30.0672 38.8066 30.2627 38.8525 30.4179 38.9442C30.5732 39.036 30.6964 39.1466 30.7874 39.2761C30.8784 39.4056 30.948 39.5433 30.9935 39.6917C31.039 39.8401 31.0631 39.9777 31.0631 40.1045V48.3044C31.0631 48.728 30.94 49.0167 30.6937 49.1732C30.4474 49.3297 30.177 49.4079 29.8852 49.4079H25.2001C24.7076 49.4079 24.397 49.1597 24.2685 48.6632L22.8175 42.2577L25.749 40.4067L26.7342 48.0831H28.1316V42.3413V42.3386ZM28.1316 39.8535C28.1316 39.7618 28.0995 39.7051 28.0353 39.689C27.971 39.6701 27.9202 39.662 27.8853 39.662C27.6846 39.6997 27.5293 39.8131 27.4195 40.0073C27.3098 40.2016 27.2589 40.4067 27.2696 40.6279C27.2776 40.8492 27.3526 41.0516 27.4891 41.235C27.6257 41.4185 27.8398 41.5103 28.1316 41.5103V39.8535Z" fill="#2E3192"/>
<path d="M36.3265 40.8115C36.4817 40.5147 36.72 40.2611 37.0493 40.056C37.3759 39.8483 37.815 39.7457 38.3691 39.7457H39.448V41.8422H38.3129C37.7213 41.8422 37.2742 41.9583 36.9663 42.1903C36.6584 42.4223 36.4469 42.7461 36.3318 43.1617V45.6251H33.8287V38.8715C33.8287 38.2644 33.9411 37.6951 34.166 37.1635C34.3909 36.632 34.7121 36.1733 35.1298 35.7847C35.5474 35.3962 36.0561 35.0886 36.6611 34.8619C37.2635 34.6353 37.9515 34.522 38.7225 34.522C39.4936 34.522 40.1789 34.6353 40.7839 34.8619C41.3863 35.0886 41.8976 35.3962 42.3153 35.7847C42.7329 36.1733 43.0542 36.632 43.2791 37.1635C43.504 37.6951 43.6164 38.2644 43.6164 38.8715V45.6251H41.1132V38.8904C41.1132 38.2185 40.9071 37.6573 40.4975 37.2121C40.0879 36.7669 39.4962 36.5429 38.7252 36.5429C37.9542 36.5429 37.3652 36.7669 36.9529 37.2121C36.5433 37.6573 36.3372 38.2185 36.3372 38.8904V40.8115H36.3265Z" fill="#2E3192"/>
<path d="M47.7794 43.1911C47.4501 43.1911 47.161 43.1318 46.8691 42.9968C46.58 42.8808 46.3257 42.7243 46.1329 42.4896C45.9 42.2953 45.7447 42.0417 45.6296 41.7476C45.4931 41.4562 45.4369 41.1621 45.4369 40.8302C45.4369 40.4983 45.4958 40.2069 45.6296 39.9128C45.7447 39.6187 45.9 39.365 46.1329 39.1708C46.3257 38.936 46.5773 38.7795 46.8691 38.6635C47.1583 38.5259 47.4501 38.4692 47.7794 38.4692C48.6307 38.4692 49.308 38.704 49.8113 39.1519C50.2959 39.5998 50.5476 40.2069 50.5476 40.9462V45.9811C50.8956 46.0593 51.2436 46.1969 51.5943 46.3723C51.9424 46.5477 52.2904 46.7635 52.6197 47.0172C52.949 47.2519 53.2783 47.5056 53.6076 47.7592C53.9181 48.0317 54.2073 48.2853 54.4776 48.5201V38.6635H56.938V50.4115H54.4589C54.2073 50.1201 53.9154 49.826 53.6076 49.513C53.297 49.1811 52.9677 48.8897 52.6197 48.5767C52.2717 48.3042 51.9236 48.029 51.5542 47.797C51.2062 47.5622 50.8769 47.3868 50.5476 47.2492V49.2C50.5476 49.3754 50.4887 49.5508 50.3548 49.7262C50.2397 49.9016 50.0844 50.0392 49.8702 50.1741C49.6561 50.3117 49.4258 50.4088 49.134 50.4871C48.8449 50.5653 48.5531 50.6031 48.2238 50.6031C47.9347 50.6031 47.6428 50.5653 47.3323 50.4655C47.003 50.3684 46.7139 50.2308 46.4408 50.0554C46.1891 49.88 45.975 49.6452 45.7822 49.3727C45.6269 49.1002 45.5306 48.7872 45.5306 48.4176C45.5306 48.0479 45.6082 47.6944 45.7447 47.403C45.8813 47.09 46.074 46.8175 46.3069 46.6232C46.5399 46.3885 46.8102 46.232 47.1021 46.0971C47.4126 45.9595 47.7419 45.8812 48.0712 45.8435V43.1695C48.0123 43.1884 47.9159 43.1884 47.7821 43.1884L47.7794 43.1911ZM48.4969 41.5506C48.6896 41.3563 48.786 41.1216 48.786 40.8275C48.786 40.5738 48.6896 40.3391 48.4969 40.1448C48.3041 39.929 48.0712 39.8318 47.7794 39.8318C47.509 39.8318 47.2761 39.929 47.0619 40.1448C46.8691 40.3391 46.7728 40.5738 46.7728 40.8275C46.7728 41.1189 46.8691 41.3536 47.0619 41.5506C47.2761 41.7449 47.5063 41.8447 47.7794 41.8447C48.0685 41.8447 48.3014 41.7476 48.4969 41.5506ZM47.8008 47.171C47.6643 47.2303 47.5491 47.287 47.434 47.3868C47.3189 47.4867 47.2199 47.6027 47.1449 47.7565C47.0485 47.913 47.0084 48.1073 47.0084 48.3231C47.0084 48.539 47.0458 48.6928 47.1235 48.8493C47.2011 48.9653 47.2975 49.084 47.4126 49.1623C47.5277 49.2594 47.6455 49.3188 47.7606 49.3565C47.8972 49.3943 47.9936 49.4159 48.0899 49.4348V47.0927C48.0123 47.1116 47.9159 47.1305 47.8008 47.171Z" fill="#2E3192"/>
<path d="M66.9452 45.6224V39.0442C66.9452 38.2806 66.723 37.6735 66.2813 37.2202C65.8395 36.7669 65.2318 36.5402 64.4608 36.5402C63.5238 36.5402 62.8009 36.8802 62.295 37.5601C61.789 38.2401 61.5346 39.1602 61.5346 40.3258C61.5346 40.9734 61.6016 41.513 61.7354 41.9474C61.8693 42.3818 62.046 42.7326 62.2655 43.0051C62.4824 43.2777 62.7233 43.4719 62.9883 43.588C63.2507 43.704 63.5104 43.7633 63.7674 43.7633C64.0244 43.7633 64.2654 43.7444 64.4902 43.704C64.7151 43.6662 64.9561 43.5879 65.2131 43.4719L65.6548 45.2959C65.3844 45.4632 65.0872 45.5873 64.7606 45.6656C64.434 45.7438 64.0244 45.7816 63.5372 45.7816C62.9589 45.7816 62.402 45.6737 61.8613 45.4605C61.3231 45.2474 60.8413 44.9182 60.4183 44.4703C59.9953 44.0251 59.6579 43.4584 59.4063 42.7731C59.1573 42.0877 59.0315 41.2729 59.0315 40.3285C59.0315 39.5136 59.1493 38.7527 59.3876 38.0485C59.6258 37.3443 59.9685 36.7291 60.4183 36.2056C60.868 35.6822 61.4249 35.2721 62.0942 34.9725C62.7608 34.6757 63.5318 34.5273 64.4046 34.5273C65.2265 34.5273 65.952 34.6434 66.5811 34.8754C67.2102 35.1075 67.7376 35.4285 68.1606 35.836C68.5836 36.2434 68.9049 36.7264 69.1244 37.2822C69.3413 37.8381 69.451 38.4344 69.451 39.0684V45.6278H66.9479L66.9452 45.6224Z" fill="#2E3192"/>
<path d="M60.6887 33.3994V31.4972H67.2156V29.6543H69.4483V33.3994H60.6887Z" fill="#2E3192"/>
<path d="M78.8398 39.2866C78.9175 39.1112 79.0326 38.9169 79.2066 38.7388C79.3806 38.5634 79.6912 38.4663 80.1356 38.4663C80.4247 38.4852 80.754 38.5634 81.1422 38.6822C81.509 38.7982 81.8784 38.9736 82.2264 39.2488C82.5745 39.4835 82.8663 39.8343 83.1179 40.2255C83.3696 40.6546 83.4847 41.1618 83.4847 41.7662V50.4113H81.0056V41.7851C80.9869 41.2185 80.9093 40.8084 80.7165 40.5169C80.5612 40.2255 80.3096 40.0286 80.0205 39.9314L76.2831 50.4113H73.6488V43.1693C73.5899 43.1882 73.4935 43.1882 73.3784 43.1882C73.0491 43.1882 72.76 43.1288 72.4682 42.9939C72.179 42.8779 71.9247 42.7214 71.732 42.4866C71.499 42.2924 71.3438 42.0387 71.2286 41.7446C71.0921 41.4532 71.0359 41.1591 71.0359 40.8272C71.0359 40.4954 71.0948 40.204 71.2286 39.9099C71.3438 39.6157 71.499 39.3621 71.732 39.1678C71.9247 38.9331 72.1764 38.7766 72.4682 38.6606C72.7573 38.523 73.0491 38.4663 73.3784 38.4663C74.2297 38.4663 74.9071 38.7011 75.4131 39.149C75.8976 39.5969 76.1493 40.204 76.1493 40.9433V46.8173L78.8398 39.2839V39.2866ZM74.0959 41.5504C74.2886 41.3561 74.385 41.1214 74.385 40.8272C74.385 40.5736 74.2886 40.3389 74.0959 40.1446C73.9031 39.9287 73.6702 39.8316 73.3784 39.8316C73.108 39.8316 72.8751 39.9287 72.6609 40.1446C72.4682 40.3389 72.3718 40.5736 72.3718 40.8272C72.3718 41.1187 72.4682 41.3534 72.6609 41.5504C72.8751 41.7446 73.1053 41.8445 73.3784 41.8445C73.6675 41.8445 73.9005 41.7473 74.0959 41.5504Z" fill="#2E3192"/>
<path d="M78.2562 33.5097C78.3526 33.2561 78.4891 33.0402 78.6819 32.8648C78.8371 32.6894 79.0486 32.5329 79.3003 32.4358C79.5332 32.3387 79.7849 32.2793 80.0552 32.2793C80.3256 32.2793 80.5773 32.3387 80.8102 32.4358C81.0619 32.5329 81.276 32.6894 81.4286 32.8648C81.6214 33.0402 81.7579 33.2561 81.8543 33.4881C81.9507 33.7201 82.0096 33.9765 82.0096 34.249C82.0096 34.5026 81.9721 34.7563 81.8543 34.9505C81.7767 35.1853 81.6401 35.3795 81.4875 35.5549C82.379 35.6521 83.0938 35.4389 83.6373 34.8912C84.1808 34.3434 84.5074 33.6041 84.6064 32.6867H86.7375C86.6411 33.2534 86.4483 33.7984 86.1565 34.2868C85.8674 34.7751 85.5167 35.2231 85.0723 35.5738C84.6466 35.9651 84.162 36.2376 83.5998 36.4723C83.0376 36.6666 82.4379 36.7853 81.7981 36.7853C81.2546 36.7853 80.7513 36.726 80.3069 36.591C79.8625 36.4534 79.4556 36.2781 79.145 36.0433C78.797 35.8274 78.5453 35.5549 78.3713 35.2635C78.1973 34.9505 78.1009 34.6187 78.1009 34.2679C78.1009 33.9954 78.1598 33.7417 78.2562 33.507V33.5097ZM79.4556 34.875C79.6296 35.0504 79.8223 35.1286 80.074 35.1286C80.3256 35.1286 80.5184 35.0504 80.6924 34.875C80.8664 34.6996 80.9441 34.5053 80.9441 34.2517C80.9441 33.9981 80.8664 33.8038 80.6924 33.6284C80.5184 33.453 80.3256 33.3748 80.074 33.3748C79.8223 33.3748 79.6296 33.453 79.4556 33.6284C79.2816 33.8038 79.2039 33.9981 79.2039 34.2517C79.2039 34.5053 79.2816 34.6996 79.4556 34.875Z" fill="#2E3192"/>
<path d="M81.5491 28.0459H83.4847V31.3431H81.5491V28.0459Z" fill="#2E3192"/>
<path d="M90.4935 39.4323H89.1228V40.7032H86.1913V39.2408C86.1913 38.9656 86.3011 38.7119 86.5206 38.4826C86.7402 38.2532 86.9865 38.1372 87.2595 38.1372H92.3542C92.646 38.1372 92.903 38.2424 93.1225 38.4556C93.3421 38.6688 93.4518 38.9305 93.4518 39.2435V47.4164C93.4518 47.5459 93.4277 47.6889 93.3822 47.8454C93.3367 48.0019 93.2644 48.1449 93.1627 48.2744C93.0609 48.4039 92.9244 48.5145 92.7531 48.6063C92.5791 48.698 92.3729 48.7439 92.1373 48.7439H90.7398C90.1187 48.7439 89.661 48.5658 89.3691 48.2042C89.0773 47.8454 88.9301 47.4487 88.9301 47.017C88.9301 46.5853 89.0613 46.1806 89.3263 45.8028C89.5913 45.4251 89.9795 45.22 90.4909 45.1822V39.4404L90.4935 39.4323ZM90.4935 45.9755C90.2017 45.9755 89.9876 46.0673 89.851 46.2507C89.7145 46.4342 89.6369 46.642 89.6181 46.8713C89.5994 47.1007 89.6449 47.3165 89.7547 47.5189C89.8644 47.7213 90.0197 47.84 90.2205 47.8778C90.258 47.8778 90.3115 47.8643 90.3838 47.8373C90.4561 47.8103 90.4935 47.7509 90.4935 47.6565V45.9728V45.9755Z" fill="#2E3192"/>
<path d="M97.5961 33.3456C97.6523 33.0434 97.671 32.7763 97.6898 32.5119C97.7085 32.2286 97.7273 31.9803 97.7085 31.7537C97.7085 31.527 97.6898 31.3354 97.6336 31.1843L96.5225 33.7261H95.1304L93.2109 30.1617L94.5843 29.3091L95.9764 32.0208C96.0513 31.8508 96.145 31.6592 96.2387 31.4515C96.3325 31.2437 96.4449 31.0144 96.5386 30.7688C96.6323 30.5422 96.726 30.3128 96.8197 30.1051C96.9134 29.8973 97.0071 29.7057 97.0821 29.5357H97.8343C98.0217 29.5546 98.2306 29.5924 98.4554 29.6679C98.6991 29.7246 98.9079 29.8568 99.0953 30.0079C99.3014 30.1968 99.4728 30.4261 99.6039 30.7283C99.7351 31.0494 99.8101 31.4488 99.8101 31.9425V42.6167C99.8663 42.5978 99.9038 42.5978 99.96 42.5978H100.129C100.447 42.5978 100.731 42.6545 101.012 42.7867C101.293 42.9 101.521 43.0511 101.727 43.2804C101.933 43.4693 102.104 43.7176 102.217 44.0009C102.348 44.2842 102.404 44.5702 102.404 44.8913C102.404 45.2124 102.348 45.4984 102.217 45.7817C102.104 46.065 101.936 46.3132 101.727 46.5021C101.521 46.7288 101.293 46.8826 101.012 46.9959C100.731 47.1281 100.447 47.1848 100.129 47.1848C99.3014 47.1848 98.6428 46.9581 98.1529 46.521C97.663 46.0839 97.4194 45.4984 97.4194 44.778V34.1605C97.4756 33.896 97.5318 33.61 97.588 33.3456H97.5961ZM99.4032 44.1897C99.2158 44.3786 99.1221 44.608 99.1221 44.8913C99.1221 45.1368 99.2158 45.3662 99.4032 45.555C99.5906 45.7628 99.8181 45.8572 100.099 45.8572C100.362 45.8572 100.589 45.7628 100.777 45.555C100.983 45.3662 101.076 45.1368 101.076 44.8913C101.076 44.608 100.983 44.3786 100.777 44.1897C100.589 44.0009 100.362 43.9064 100.099 43.9064C99.8181 43.9064 99.5906 44.0009 99.4032 44.1897Z" fill="#2E3192"/>
<path d="M113.999 44.5323C113.488 47.2305 113.169 48.933 113.043 49.64H110.797L111.228 47.449C112.168 42.7919 112.639 40.4148 112.639 40.3177C112.639 40.0937 112.588 39.9048 112.484 39.751C112.379 39.5999 112.224 39.5217 112.018 39.5217C111.493 39.5217 110.824 40.0235 110.01 41.0273C109.196 42.031 108.441 43.3154 107.74 44.8803C107.038 46.4453 106.546 48.0318 106.257 49.6373C106.018 49.6859 105.684 49.7101 105.253 49.7101C104.774 49.7101 104.417 49.6859 104.177 49.6373C104.321 49.2676 104.439 48.8737 104.535 48.4582C104.632 48.0399 104.741 47.4787 104.87 46.7718L106.399 39.376C106.399 39.0873 106.318 38.9416 106.16 38.9416C105.906 38.9416 105.703 39.1898 105.55 39.689C105.397 40.1881 105.322 40.7089 105.322 41.2539C105.322 41.6074 105.363 41.9609 105.443 42.3143C104.709 42.1228 104.343 41.5831 104.343 40.7008C104.343 40.1719 104.463 39.6863 104.701 39.2438C104.94 38.8013 105.25 38.4532 105.633 38.1969C106.016 37.9405 106.415 37.811 106.827 37.811C107.239 37.811 107.609 37.9486 107.879 38.2211C108.149 38.4937 108.286 38.8714 108.286 39.3544C108.286 39.546 108.174 40.1018 107.951 41.0165C107.729 41.9312 107.585 42.5275 107.52 42.8C107.472 42.9457 107.416 43.1616 107.354 43.4503C108.088 41.8448 108.912 40.4957 109.828 39.403C110.744 38.3102 111.681 37.7651 112.636 37.7651C113.209 37.7651 113.715 37.9621 114.154 38.356C114.593 38.75 114.81 39.268 114.81 39.9102C114.81 40.1989 114.54 41.7423 113.996 44.535L113.999 44.5323Z" fill="#2E3192"/>
<path d="M120.036 40.7275L121.57 41.7771L120.256 42.7161V45.6706H122.309V36.3672H125.323V45.6706C125.323 46.1482 125.208 46.4909 124.981 46.6933C124.753 46.8956 124.429 46.9982 124.009 46.9982H118.366C118.074 46.9982 117.817 46.8983 117.597 46.6933C117.378 46.4909 117.268 46.2427 117.268 45.9486V42.6621L118.639 41.8068L117.078 40.9515V37.5544C117.078 37.2981 117.177 37.0336 117.38 36.7665C117.581 36.4994 117.918 36.3672 118.395 36.3672H119.819C120.24 36.3672 120.582 36.4589 120.847 36.6424C121.112 36.8259 121.308 37.0525 121.436 37.3197C121.565 37.5868 121.629 37.8755 121.629 38.1885C121.629 38.5015 121.565 38.7929 121.436 39.0573C121.308 39.3244 121.126 39.5403 120.887 39.7049C120.649 39.8695 120.368 39.945 120.039 39.9261V40.7275H120.036ZM120.036 39.0978C120.328 39.0978 120.547 39.006 120.695 38.8226C120.842 38.6391 120.917 38.4367 120.928 38.2155C120.936 37.9942 120.89 37.7864 120.791 37.5949C120.689 37.4006 120.539 37.2873 120.339 37.2495C120.301 37.2495 120.242 37.2603 120.162 37.2765C120.079 37.2954 120.039 37.3493 120.039 37.4411V39.0978H120.036Z" fill="#2E3192"/>
<path d="M22.1509 63.1715C21.7252 62.7452 21.5137 62.1408 21.5137 61.3556C21.5137 60.7378 21.6422 60.1954 21.8965 59.7259C22.1535 59.2564 22.523 58.8949 23.0049 58.6358C23.4868 58.3768 24.0543 58.25 24.7022 58.25C25.1573 58.25 25.575 58.3094 25.9578 58.4308C26.3406 58.5495 26.6619 58.7006 26.9216 58.8841V63.3766C26.9216 63.471 26.9002 63.5412 26.8573 63.5844C26.8145 63.6275 26.7422 63.6491 26.6405 63.6491H26.3058C26.2255 63.6491 26.1693 63.6302 26.1318 63.5952C26.0943 63.5601 26.0702 63.5007 26.0569 63.4198L26.0033 62.9395C25.7731 63.2444 25.4839 63.4656 25.1386 63.6033C24.7932 63.7409 24.3702 63.811 23.8723 63.811C23.1521 63.811 22.5765 63.5979 22.1535 63.1742L22.1509 63.1715ZM25.0717 62.8828C25.3394 62.7668 25.5535 62.5968 25.7195 62.3756C25.8855 62.1543 25.9685 61.898 25.9685 61.6066V59.2618C25.6071 59.0811 25.1787 58.9893 24.6808 58.9893C24.0169 58.9893 23.4841 59.1944 23.0798 59.6045C22.6756 60.0146 22.4748 60.5813 22.4748 61.299C22.4748 61.9034 22.622 62.3459 22.9139 62.6292C23.2057 62.9125 23.6474 63.0555 24.2391 63.0555C24.5282 63.0555 24.8039 62.9962 25.0717 62.8801V62.8828Z" fill="#F47920"/>
<path d="M30.0191 63.096C29.489 62.6211 29.2239 61.9385 29.2239 61.0507C29.2239 60.4976 29.3444 60.0119 29.5854 59.591C29.8263 59.1701 30.1717 58.8409 30.6187 58.6035C31.0658 58.366 31.5852 58.25 32.1769 58.25C32.6159 58.25 32.9907 58.2905 33.2959 58.3714C33.6011 58.4524 33.8929 58.59 34.166 58.7869C34.2249 58.8301 34.2517 58.8733 34.2517 58.9165C34.2517 58.93 34.2383 58.9677 34.2088 59.0244L33.992 59.394C33.9625 59.4588 33.9304 59.4912 33.8956 59.4912C33.8742 59.4912 33.8367 59.4723 33.7885 59.4372C33.5717 59.2834 33.3387 59.1728 33.0844 59.0999C32.8328 59.0271 32.5356 58.992 32.1983 58.992C31.5638 58.992 31.0685 59.1755 30.7151 59.5424C30.3617 59.9094 30.185 60.414 30.185 61.0534C30.185 61.7361 30.3617 62.2407 30.7151 62.5698C31.0685 62.8963 31.5959 63.0609 32.2946 63.0609C32.64 63.0609 32.9372 63.0231 33.1808 62.9476C33.4271 62.872 33.652 62.7614 33.8635 62.6157C33.9143 62.5806 33.9491 62.5617 33.9706 62.5617C34.0054 62.5617 34.0402 62.5941 34.0669 62.6589L34.2945 63.0393C34.3239 63.0987 34.3373 63.1311 34.3373 63.1365C34.3373 63.1796 34.3052 63.2228 34.2409 63.2687C33.9679 63.4495 33.668 63.5871 33.3441 63.6761C33.0202 63.7679 32.6454 63.8137 32.2197 63.8137C31.2827 63.8137 30.5491 63.5763 30.0191 63.0987V63.096Z" fill="#F47920"/>
<path d="M37.7802 63.3254C37.4991 63.0017 37.3572 62.5565 37.3572 61.9898V59.1891H36.6531C36.538 59.1891 36.463 59.1729 36.4255 59.1405C36.388 59.1081 36.372 59.038 36.372 58.9274V58.698C36.372 58.5901 36.3907 58.5145 36.4255 58.4741C36.4603 58.4336 36.538 58.4147 36.6531 58.4147H37.3572V57.6511C37.3572 57.5135 37.3759 57.3894 37.4161 57.2814C37.4562 57.1735 37.5258 57.0197 37.6276 56.8227C37.6624 56.7634 37.6972 56.7256 37.7239 56.7013C37.7534 56.6797 37.7989 56.6689 37.8658 56.6689H38.0827C38.1764 56.6689 38.2433 56.6932 38.2835 56.7391C38.3236 56.7877 38.3424 56.8578 38.3424 56.9523V58.412H39.8255C39.9406 58.412 40.0156 58.4309 40.0531 58.4714C40.0879 58.5118 40.1066 58.5847 40.1066 58.6953V58.9247C40.1066 59.0326 40.0879 59.1054 40.0531 59.1378C40.0156 59.1702 39.9406 59.1864 39.8255 59.1864H38.3424V61.9547C38.3424 62.3406 38.4093 62.6185 38.5432 62.7885C38.677 62.9585 38.9046 63.0448 39.2312 63.0448C39.4106 63.0448 39.5712 63.0205 39.7077 62.9747C39.8443 62.9261 39.9888 62.8533 40.1414 62.7507C40.1843 62.7291 40.2164 62.7183 40.2378 62.7183C40.2726 62.7183 40.3074 62.7426 40.3342 62.7939L40.5617 63.1636C40.5832 63.2067 40.5939 63.2445 40.5939 63.2715C40.5939 63.3227 40.5644 63.3659 40.5082 63.4037C40.1254 63.6735 39.6462 63.8084 39.0706 63.8084C38.495 63.8084 38.0639 63.6465 37.7828 63.3227L37.7802 63.3254Z" fill="#F47920"/>
<path d="M42.9739 57.1976C42.8936 57.114 42.8561 57.0115 42.8561 56.8873V56.6688C42.8561 56.5447 42.8962 56.4421 42.9739 56.3585C43.0542 56.2749 43.1613 56.2344 43.2978 56.2344H43.6003C43.7369 56.2344 43.8466 56.2775 43.9243 56.3585C44.0046 56.4421 44.0421 56.5447 44.0421 56.6688V56.8873C44.0421 57.0115 44.0019 57.114 43.9243 57.1976C43.844 57.2813 43.7369 57.3218 43.6003 57.3218H43.2978C43.1613 57.3218 43.0515 57.2786 42.9739 57.1976ZM43.0381 63.5654C42.9873 63.5115 42.9632 63.4305 42.9632 63.3199V58.741C42.9632 58.6331 42.9873 58.5494 43.0381 58.4955C43.089 58.4415 43.172 58.4145 43.2871 58.4145H43.611C43.8332 58.4145 43.9457 58.5225 43.9457 58.741V63.3199C43.9457 63.5384 43.8332 63.6464 43.611 63.6464H43.2871C43.172 63.6464 43.089 63.6194 43.0381 63.5654Z" fill="#F47920"/>
<path d="M48.885 63.5976C48.8449 63.5652 48.8047 63.5058 48.7619 63.4168L46.5452 58.6626C46.5318 58.641 46.5238 58.6086 46.5238 58.5654C46.5238 58.4629 46.5773 58.4116 46.6871 58.4116H47.2386C47.3242 58.4116 47.3885 58.4278 47.4287 58.4602C47.4688 58.4926 47.5036 58.5465 47.5304 58.6194L49.2384 62.467L50.9465 58.6194C50.9759 58.5465 51.0107 58.4953 51.0535 58.4602C51.0964 58.4251 51.1606 58.4116 51.249 58.4116H51.8005C51.9076 58.4116 51.9638 58.4629 51.9638 58.5654C51.9638 58.6086 51.9557 58.641 51.9424 58.6626L49.7257 63.4168C49.6882 63.5031 49.6507 63.5652 49.6079 63.5976C49.565 63.63 49.5008 63.6462 49.4124 63.6462H49.0778C48.9921 63.6462 48.9279 63.63 48.8877 63.5976H48.885Z" fill="#F47920"/>
<path d="M54.8926 63.5248C54.4455 63.3359 54.0868 63.0391 53.8164 62.6371C53.546 62.235 53.4095 61.7305 53.4095 61.1261C53.4095 60.1817 53.6531 59.4667 54.1403 58.9783C54.6276 58.4926 55.3183 58.2471 56.2124 58.2471C57.1066 58.2471 57.7652 58.4818 58.2123 58.9513C58.6594 59.4208 58.8816 60.1169 58.8816 61.0397C58.8816 61.2367 58.7879 61.3338 58.6005 61.3338H54.3491C54.3491 61.9085 54.5365 62.343 54.9113 62.6425C55.2861 62.9393 55.8055 63.0904 56.4695 63.0904C57.0959 63.0904 57.6367 62.9474 58.0918 62.664C58.1347 62.6425 58.1668 62.6317 58.1882 62.6317C58.231 62.6317 58.2632 62.656 58.2846 62.7072L58.4907 63.0661C58.5041 63.0877 58.5121 63.1173 58.5121 63.1524C58.5121 63.2037 58.4827 63.2469 58.4265 63.2846C58.1373 63.4654 57.8295 63.6003 57.5028 63.6813C57.1762 63.7622 56.7987 63.8054 56.3731 63.8054C55.8323 63.8054 55.337 63.711 54.8899 63.5221L54.8926 63.5248ZM57.9767 60.6674C57.9767 60.1223 57.8295 59.6987 57.5323 59.3965C57.2378 59.0943 56.7961 58.9432 56.2124 58.9432C55.6288 58.9432 55.155 59.0997 54.8337 59.4127C54.5124 59.7257 54.3518 60.1439 54.3518 60.6674H57.9767Z" fill="#F47920"/>
<path d="M62.3244 63.3254C62.0433 63.0017 61.9014 62.5565 61.9014 61.9898V59.1891H61.1973C61.0822 59.1891 61.0073 59.1729 60.9698 59.1405C60.9323 59.1081 60.9162 59.038 60.9162 58.9274V58.698C60.9162 58.5901 60.935 58.5145 60.9698 58.4741C61.0046 58.4336 61.0822 58.4147 61.1973 58.4147H61.9014V57.6511C61.9014 57.5135 61.9202 57.3894 61.9603 57.2814C62.0005 57.1735 62.0701 57.0197 62.1718 56.8227C62.2066 56.7634 62.2414 56.7256 62.2682 56.7013C62.2976 56.6797 62.3432 56.6689 62.4101 56.6689H62.6269C62.7206 56.6689 62.7876 56.6932 62.8277 56.7391C62.8679 56.7877 62.8866 56.8578 62.8866 56.9523V58.412H64.3698C64.4849 58.412 64.5599 58.4309 64.5973 58.4714C64.6321 58.5118 64.6509 58.5847 64.6509 58.6953V58.9247C64.6509 59.0326 64.6321 59.1054 64.5973 59.1378C64.5599 59.1702 64.4849 59.1864 64.3698 59.1864H62.8866V61.9547C62.8866 62.3406 62.9536 62.6185 63.0874 62.7885C63.2213 62.9585 63.4488 63.0448 63.7754 63.0448C63.9548 63.0448 64.1154 63.0205 64.252 62.9747C64.3885 62.9261 64.5331 62.8533 64.6857 62.7507C64.7285 62.7291 64.7606 62.7183 64.7821 62.7183C64.8169 62.7183 64.8517 62.7426 64.8784 62.7939L65.106 63.1636C65.1274 63.2067 65.1381 63.2445 65.1381 63.2715C65.1381 63.3227 65.1087 63.3659 65.0525 63.4037C64.6696 63.6735 64.1904 63.8084 63.6148 63.8084C63.0392 63.8084 62.6082 63.6465 62.3271 63.3227L62.3244 63.3254Z" fill="#F47920"/>
<path d="M67.3976 63.3199V56.5069C67.3976 56.4044 67.4137 56.3342 67.4458 56.2937C67.478 56.2533 67.5449 56.2344 67.6466 56.2344H68.1339C68.2356 56.2344 68.3025 56.256 68.3347 56.2937C68.3668 56.3342 68.3828 56.4044 68.3828 56.5069V59.0567C68.6291 58.7815 68.9156 58.5764 69.2476 58.4469C69.5795 58.3174 69.9865 58.2499 70.471 58.2499C71.0627 58.2499 71.5312 58.4037 71.8819 58.714C72.2326 59.0243 72.4066 59.4911 72.4066 60.1144V63.3199C72.4066 63.4278 72.3798 63.5115 72.3317 63.5654C72.2808 63.6194 72.1978 63.6464 72.0827 63.6464H71.7587C71.5365 63.6464 71.4241 63.5384 71.4241 63.3199V60.1684C71.4241 59.7475 71.3197 59.4479 71.1109 59.2699C70.9021 59.0918 70.5888 59.0027 70.1685 59.0027C69.8874 59.0027 69.609 59.0594 69.3306 59.1727C69.0521 59.2861 68.8246 59.4453 68.6479 59.653C68.4712 59.8608 68.3828 60.0901 68.3828 60.3465V63.3226C68.3828 63.4305 68.3587 63.5142 68.3079 63.5681C68.257 63.6221 68.174 63.6491 68.0589 63.6491H67.735C67.5128 63.6491 67.4003 63.5411 67.4003 63.3226L67.3976 63.3199Z" fill="#F47920"/>
<path d="M75.2926 63.1715C74.8669 62.7452 74.6554 62.1408 74.6554 61.3556C74.6554 60.7378 74.7839 60.1954 75.0383 59.7259C75.2926 59.2564 75.6647 58.8949 76.1466 58.6358C76.6285 58.3768 77.1961 58.25 77.8439 58.25C78.299 58.25 78.7167 58.3094 79.0995 58.4308C79.4824 58.5495 79.8036 58.7006 80.0633 58.8841V63.3766C80.0633 63.471 80.0419 63.5412 79.9991 63.5844C79.9562 63.6275 79.8839 63.6491 79.7822 63.6491H79.4476C79.3672 63.6491 79.311 63.6302 79.2735 63.5952C79.2361 63.5601 79.212 63.5007 79.1986 63.4198L79.145 62.9395C78.9148 63.2444 78.6257 63.4656 78.2803 63.6033C77.935 63.7409 77.512 63.811 77.014 63.811C76.2939 63.811 75.7209 63.5979 75.2953 63.1742L75.2926 63.1715ZM78.2134 62.8828C78.4811 62.7668 78.6953 62.5968 78.8613 62.3756C79.0272 62.1543 79.1102 61.898 79.1102 61.6066V59.2618C78.7488 59.0811 78.3205 58.9893 77.8225 58.9893C77.1586 58.9893 76.6258 59.1944 76.2216 59.6045C75.8173 60.0146 75.6165 60.5813 75.6165 61.299C75.6165 61.9034 75.7611 62.3459 76.0556 62.6292C76.3474 62.9125 76.7891 63.0555 77.3808 63.0555C77.6699 63.0555 77.9457 62.9962 78.2134 62.8801V62.8828Z" fill="#F47920"/>
<path d="M82.8636 57.1976C82.7833 57.114 82.7458 57.0115 82.7458 56.8873V56.6688C82.7458 56.5447 82.786 56.4421 82.8636 56.3585C82.9439 56.2749 83.051 56.2344 83.1876 56.2344H83.4901C83.6266 56.2344 83.7364 56.2775 83.814 56.3585C83.8943 56.4421 83.9318 56.5447 83.9318 56.6688V56.8873C83.9318 57.0115 83.8917 57.114 83.814 57.1976C83.7337 57.2813 83.6266 57.3218 83.4901 57.3218H83.1876C83.051 57.3218 82.9413 57.2786 82.8636 57.1976ZM82.9279 63.5654C82.877 63.5115 82.8529 63.4305 82.8529 63.3199V58.741C82.8529 58.6331 82.877 58.5494 82.9279 58.4955C82.9787 58.4415 83.0617 58.4145 83.1768 58.4145H83.5008C83.723 58.4145 83.8354 58.5225 83.8354 58.741V63.3199C83.8354 63.5384 83.723 63.6464 83.5008 63.6464H83.1768C83.0617 63.6464 82.9787 63.6194 82.9279 63.5654Z" fill="#F47920"/>
<path d="M86.5153 63.5195C86.4403 63.4359 86.4028 63.3361 86.4028 63.22V63.0555C86.4028 62.9313 86.4403 62.8315 86.5153 62.7506C86.5902 62.6696 86.6866 62.6318 86.8017 62.6318H86.9757C87.0909 62.6318 87.1872 62.6723 87.2622 62.7506C87.3372 62.8315 87.3746 62.9313 87.3746 63.0555V63.22C87.3746 63.3361 87.3372 63.4359 87.2622 63.5195C87.1872 63.6032 87.0909 63.6437 86.9757 63.6437H86.8017C86.6866 63.6437 86.5902 63.6032 86.5153 63.5195Z" fill="#F47920"/>
<path d="M90.3597 63.0634C89.8698 62.5669 89.6235 61.887 89.6235 61.0289C89.6235 60.1709 89.8698 59.4936 90.3597 58.9945C90.8496 58.498 91.5537 58.2471 92.4693 58.2471C93.3849 58.2471 94.0783 58.4953 94.5736 58.9945C95.0662 59.4936 95.3151 60.1709 95.3151 61.0289C95.3151 61.887 95.0688 62.5642 94.5736 63.0634C94.0783 63.5599 93.3795 63.8108 92.4693 63.8108C91.5591 63.8108 90.8496 63.5626 90.3597 63.0634ZM93.8588 62.5291C94.18 62.1838 94.3406 61.6846 94.3406 61.0316C94.3406 60.3787 94.1827 59.8876 93.8641 59.5422C93.5455 59.1968 93.0824 59.0242 92.4693 59.0242C91.8562 59.0242 91.3904 59.1968 91.0692 59.5422C90.7479 59.8876 90.5873 60.3841 90.5873 61.0316C90.5873 61.6792 90.7479 62.1757 91.0692 62.5264C91.3904 62.8745 91.8562 63.0499 92.4693 63.0499C93.0824 63.0499 93.5375 62.8772 93.8588 62.5318V62.5291Z" fill="#F47920"/>
<path d="M97.7808 63.3197V58.6869C97.7808 58.5843 97.7969 58.5142 97.829 58.4737C97.8611 58.4332 97.928 58.4143 98.0298 58.4143H98.3858C98.4661 58.4143 98.5197 58.4332 98.5545 58.4683C98.5893 58.5034 98.608 58.5627 98.6134 58.6437L98.6241 59.0808C98.8195 58.8191 99.0632 58.6167 99.355 58.471C99.6468 58.3253 99.9841 58.2524 100.367 58.2524C100.635 58.2524 100.827 58.2929 100.951 58.3739C101.015 58.417 101.036 58.471 101.015 58.5385L100.897 59.0187C100.876 59.1051 100.822 59.1321 100.734 59.0943C100.589 59.0295 100.41 58.9972 100.193 58.9972C99.7806 58.9972 99.4406 59.1132 99.1702 59.3452C98.8998 59.5773 98.766 59.9011 98.766 60.3166V63.3251C98.766 63.433 98.7419 63.5167 98.691 63.5706C98.6402 63.6246 98.5572 63.6516 98.4421 63.6516H98.1181C97.8932 63.6516 97.7835 63.5436 97.7835 63.3251L97.7808 63.3197Z" fill="#F47920"/>
<path d="M104.811 65.3895C104.436 65.3167 104.152 65.2222 103.957 65.1062C103.829 65.0252 103.788 64.947 103.839 64.8661L104.077 64.4613C104.107 64.402 104.139 64.375 104.174 64.375C104.195 64.375 104.227 64.3858 104.27 64.4074C104.466 64.5099 104.712 64.5935 105.012 64.6583C105.312 64.723 105.617 64.7554 105.925 64.7554C106.479 64.7554 106.883 64.6151 107.129 64.3345C107.378 64.0539 107.502 63.5844 107.502 62.9233C107.263 63.2066 106.998 63.4117 106.706 63.5331C106.415 63.6573 106.04 63.7193 105.587 63.7193C104.808 63.7193 104.193 63.4954 103.737 63.0421C103.282 62.5915 103.057 61.9628 103.057 61.156C103.057 60.2332 103.325 59.5182 103.858 59.0082C104.391 58.4983 105.151 58.2446 106.142 58.2446C106.581 58.2446 107.017 58.304 107.445 58.4254C107.874 58.5468 108.219 58.6925 108.479 58.8679V62.7911C108.479 63.6626 108.275 64.3318 107.868 64.7959C107.461 65.26 106.838 65.492 106.002 65.492C105.585 65.492 105.189 65.457 104.814 65.3841L104.811 65.3895ZM107.033 62.5591C107.346 62.3 107.504 61.9547 107.504 61.5176V59.2619C107.346 59.1809 107.14 59.1189 106.889 59.0703C106.637 59.0244 106.377 59.0001 106.109 59.0001C105.446 59.0001 104.932 59.1728 104.567 59.5182C104.203 59.8636 104.021 60.3843 104.021 61.0832C104.021 62.327 104.632 62.9476 105.85 62.9476C106.326 62.9476 106.72 62.8181 107.033 62.5618V62.5591Z" fill="#F47920"/>
</g>
<defs>
<clipPath id="clip0_457_1248">
<rect width="136" height="65" fill="white" transform="translate(0 0.5)"/>
</clipPath>
</defs>
</svg>
