<svg width="40" height="40" viewBox="0 0 40 40" fill="none" xmlns="http://www.w3.org/2000/svg">
<mask id="mask0_4299_11947" style="mask-type:alpha" maskUnits="userSpaceOnUse" x="0" y="0" width="40" height="40">
<rect width="40" height="40" fill="#D9D9D9"/>
</mask>
<g mask="url(#mask0_4299_11947)">
<path d="M22.0704 20.9448L19.3334 23.6823C19.1475 23.8681 19.0572 24.0849 19.0625 24.3327C19.0678 24.5805 19.1635 24.7973 19.3496 24.9831C19.5354 25.1692 19.7559 25.2623 20.0109 25.2623C20.2659 25.2623 20.4845 25.1692 20.6667 24.9831L24.8075 20.8423C25.047 20.6031 25.1667 20.3221 25.1667 19.9993C25.1667 19.6766 25.047 19.3956 24.8075 19.1564L20.6504 14.9993C20.4646 14.8135 20.2478 14.7206 20 14.7206C19.7522 14.7206 19.5354 14.8135 19.3496 14.9993C19.1635 15.1852 19.0704 15.4056 19.0704 15.6606C19.0704 15.9156 19.1635 16.1342 19.3496 16.3164L22.0704 19.0539H15C14.725 19.0539 14.4986 19.1428 14.3209 19.3206C14.1434 19.4981 14.0546 19.7245 14.0546 19.9998C14.0546 20.275 14.1434 20.5014 14.3209 20.6789C14.4986 20.8562 14.725 20.9448 15 20.9448H22.0704ZM20.0029 35.8327C17.8302 35.8327 15.7829 35.4171 13.8613 34.586C11.9396 33.7549 10.2592 32.62 8.82002 31.1814C7.38085 29.7428 6.24544 28.0631 5.41377 26.1423C4.58238 24.2217 4.16669 22.175 4.16669 20.0023C4.16669 17.8123 4.58224 15.7538 5.41335 13.8268C6.24446 11.8999 7.37933 10.2238 8.81794 8.79852C10.2565 7.37324 11.9363 6.24477 13.8571 5.4131C15.7777 4.58171 17.8243 4.16602 19.9971 4.16602C22.1871 4.16602 24.2456 4.58157 26.1725 5.41268C28.0995 6.24379 29.7756 7.37171 31.2009 8.79643C32.6261 10.2212 33.7546 11.8966 34.5863 13.8227C35.4177 15.7488 35.8334 17.8067 35.8334 19.9964C35.8334 22.1692 35.4178 24.2164 34.5867 26.1381C33.7556 28.0598 32.6277 29.7402 31.2029 31.1793C29.7782 32.6185 28.1028 33.7539 26.1767 34.5856C24.2506 35.417 22.1927 35.8327 20.0029 35.8327ZM20 33.9414C23.8803 33.9414 27.174 32.5837 29.8813 29.8681C32.5885 27.1523 33.9421 23.8627 33.9421 19.9993C33.9421 16.1191 32.5885 12.8253 29.8813 10.1181C27.174 7.41088 23.8803 6.05727 20 6.05727C16.1367 6.05727 12.8471 7.41088 10.1313 10.1181C7.41571 12.8253 6.05794 16.1191 6.05794 19.9993C6.05794 23.8627 7.41571 27.1523 10.1313 29.8681C12.8471 32.5837 16.1367 33.9414 20 33.9414Z" fill="white"/>
</g>
</svg>
