<svg width="40" height="40" viewBox="0 0 40 40" fill="none" xmlns="http://www.w3.org/2000/svg">
<mask id="mask0_4299_11932" style="mask-type:alpha" maskUnits="userSpaceOnUse" x="0" y="0" width="40" height="40">
<rect width="40" height="40" fill="#D9D9D9"/>
</mask>
<g mask="url(#mask0_4299_11932)">
<circle cx="20" cy="20" r="16" fill="white" fill-opacity="0.5"/>
<path d="M17.9296 20.9448H25C25.275 20.9448 25.5014 20.8559 25.6792 20.6781C25.8567 20.5006 25.9454 20.2742 25.9454 19.9989C25.9454 19.7237 25.8567 19.4973 25.6792 19.3198C25.5014 19.1425 25.275 19.0539 25 19.0539H17.9296L20.6667 16.3164C20.8525 16.1342 20.9454 15.9156 20.9454 15.6606C20.9454 15.4056 20.8525 15.1852 20.6667 14.9993C20.4809 14.8135 20.2604 14.7206 20.0054 14.7206C19.7504 14.7206 19.5318 14.8135 19.3496 14.9993L15.1925 19.1564C14.9531 19.3956 14.8334 19.6766 14.8334 19.9993C14.8334 20.3221 14.9531 20.6031 15.1925 20.8423L19.3496 24.9993C19.5354 25.1852 19.7549 25.2755 20.0079 25.2702C20.2613 25.2649 20.4809 25.1692 20.6667 24.9831C20.8525 24.7973 20.9454 24.5768 20.9454 24.3218C20.9454 24.0668 20.8525 23.8482 20.6667 23.666L17.9296 20.9448ZM20.0029 35.8327C17.8302 35.8327 15.7829 35.4171 13.8613 34.586C11.9396 33.7549 10.2592 32.62 8.82002 31.1814C7.38085 29.7428 6.24544 28.0631 5.41377 26.1423C4.58238 24.2217 4.16669 22.175 4.16669 20.0023C4.16669 17.8123 4.58224 15.7538 5.41335 13.8268C6.24446 11.8999 7.37933 10.2238 8.81794 8.79852C10.2565 7.37324 11.9363 6.24477 13.8571 5.4131C15.7777 4.58171 17.8243 4.16602 19.9971 4.16602C22.1871 4.16602 24.2456 4.58157 26.1725 5.41268C28.0995 6.24379 29.7756 7.37171 31.2009 8.79643C32.6261 10.2212 33.7546 11.8966 34.5863 13.8227C35.4177 15.7488 35.8334 17.8067 35.8334 19.9964C35.8334 22.1692 35.4178 24.2164 34.5867 26.1381C33.7556 28.0598 32.6277 29.7402 31.2029 31.1793C29.7782 32.6185 28.1028 33.7539 26.1767 34.5856C24.2506 35.417 22.1927 35.8327 20.0029 35.8327ZM20 33.9414C23.8803 33.9414 27.174 32.5837 29.8813 29.8681C32.5885 27.1523 33.9421 23.8627 33.9421 19.9993C33.9421 16.1191 32.5885 12.8253 29.8813 10.1181C27.174 7.41088 23.8803 6.05727 20 6.05727C16.1367 6.05727 12.8471 7.41088 10.1313 10.1181C7.41571 12.8253 6.05794 16.1191 6.05794 19.9993C6.05794 23.8627 7.41571 27.1523 10.1313 29.8681C12.8471 32.5837 16.1367 33.9414 20 33.9414Z" fill="white"/>
</g>
</svg>
