<?xml version="1.0" encoding="UTF-8"?>
<svg id="Layer_1" data-name="Layer 1" xmlns="http://www.w3.org/2000/svg" viewBox="0 0 864.66 249.29">
  <defs>
    <style>
      .cls-1 {
        fill: #fff;
        stroke-width: 0px;
      }
    </style>
  </defs>
  <path class="cls-1" d="m250.12,9.03c0-3.73-3.03-6.76-6.76-6.76s-6.77,3.03-6.77,6.76,3.03,6.77,6.77,6.77,6.76-3.03,6.76-6.77"/>
  <polygon class="cls-1" points="133.91 .64 133.91 12.94 119.47 12.94 119.47 61.58 104.82 61.58 104.82 12.94 89.67 12.94 89.67 .64 133.91 .64"/>
  <g>
    <path class="cls-1" d="m151.62,0v22.62c4.62-2.91,8.81-4.36,12.58-4.36,4.19,0,7.74,1.6,10.64,4.81,2.43,2.69,3.64,5.26,3.64,7.69v30.82h-13.64v-25.96c0-1.79-.62-3.3-1.84-4.52-1.22-1.21-2.84-1.82-4.85-1.82s-3.83.69-5.17,2.05c-1.34,1.36-2.01,2.99-2.01,4.87v25.37h-12.14V0h12.79Z"/>
    <path class="cls-1" d="m231.29,61.58h-13.07v-24.55c0-2.17-1.03-3.95-3.08-5.32-1.86-1.19-4.05-1.79-6.57-1.79-6.25,0-9.96,2.8-11.15,8.4l-.15,1.98c-.19,2.95.96,5.44,3.43,7.5,2.1,1.71,4.64,2.56,7.64,2.56,2.53,0,4.76-.54,6.72-1.6v12.24c-2.19.56-4.52.84-7,.84-5.39,0-10.15-1.24-14.29-3.73-4.43-2.68-7.24-6.29-8.43-10.82-.82-3.03-1.22-5.42-1.22-7.18,0-6.28,2.4-11.55,7.22-15.82,3.38-3,6.95-4.94,10.72-5.83,1.24-.3,3.02-.45,5.36-.45,5.86,0,11.03,1.24,15.51,3.71,5.57,3.08,8.36,7.48,8.36,13.21v26.66Z"/>
  </g>
  <rect class="cls-1" x="236.94" y="19.35" width="12.86" height="42.23"/>
  <g>
    <path class="cls-1" d="m162.1,171.61c-18.65,0-33.77-15.12-33.77-33.76s15.12-33.77,33.77-33.77,33.76,15.12,33.76,33.77-15.12,33.76-33.76,33.76m0-102.45c-37.93,0-68.68,30.75-68.68,68.69s30.75,68.67,68.68,68.67,68.68-30.75,68.68-68.67-30.75-68.69-68.68-68.69"/>
    <path class="cls-1" d="m0,160.45c21.34-2.38,27.11-4.48,29.89-6.25,9.25-5.71,13.75-18.22,13.75-38.22V0h41.95v129.58c0,23.32-6.81,41.33-20.24,53.51-13.08,11.67-31.78,17.59-55.55,17.59"/>
    <path class="cls-1" d="m275.63,241.66l57.2-80.16c5.01-8.41,6.91-14.92,6.91-23.42,0-18.36-14.94-33.3-33.3-33.3s-33.31,14.94-33.31,33.3c0,10.56,5.39,20.31,15.59,28.19,4.32,3.34,12.53,7.44,18.76,8.63.49.09.95.19,1.39.29l-18.21,29.93c-34.38-11-52.72-36.9-52.72-67,0-37.71,30.81-68.4,68.67-68.4s68.68,30.68,68.68,68.4c0,13.29-3.82,26.1-11.06,37.2l-.99,1.26-51.88,72.71h-55.08"/>
    <path class="cls-1" d="m419.67,241.66l57.19-80.16c5.01-8.41,6.91-14.92,6.91-23.42,0-18.36-14.94-33.3-33.31-33.3s-33.31,14.94-33.31,33.3c0,10.56,5.39,20.31,15.58,28.19,4.32,3.34,12.53,7.44,18.76,8.63.48.09.94.19,1.38.29l-18.21,29.93c-34.38-11-52.72-36.9-52.72-67,0-37.71,30.8-68.4,68.67-68.4s68.68,30.68,68.68,68.4c0,13.29-3.82,26.1-11.06,37.2l-.98,1.26-51.89,72.71h-55.08"/>
    <path class="cls-1" d="m720.23,241.66l57.19-80.16c5.02-8.41,6.91-14.92,6.91-23.42,0-18.36-14.94-33.3-33.31-33.3s-33.3,14.94-33.3,33.3c0,10.56,5.38,20.31,15.58,28.19,4.32,3.34,12.53,7.44,18.76,8.63.49.09.94.19,1.38.29l-18.21,29.93c-34.38-11-52.73-36.9-52.73-67,0-37.71,30.81-68.4,68.68-68.4,37.87,0,68.68,30.68,68.68,68.4,0,13.29-3.82,26.1-11.06,37.2l-.98,1.26-51.89,72.71h-55.08"/>
    <path class="cls-1" d="m541.9,66.66c-10.17,0-18.44-8.27-18.44-18.44s8.27-18.45,18.44-18.45,18.45,8.28,18.45,18.45-8.28,18.44-18.45,18.44"/>
    <path class="cls-1" d="m646.33,203.95c-.02-14.61-.11-74.6-.01-78.12.09-2.96-1.08-12.09-7.43-18.62-4.46-4.6-10.42-6.92-17.69-6.92-18.98.1-24,15.66-24,24.83l-.02,78.83h-31.18v-90.69c-.01-.3-.57-16.21,11.18-28.63,9.47-9.99,24.23-15.15,43.87-15.34h1.13c19.46-.01,34.01,4.92,43.25,14.64,11.23,11.82,10.62,26.7,10.61,26.85v93.17h-29.71Z"/>
  </g>
  <rect class="cls-1" x="526.2" y="72.22" width="31.39" height="131.73"/>
  <path class="cls-1" d="m806.29,190.45s23.8,6.6,33.96-4.27c.08-.09,0-.02,0-.02l20.73,31.53,3.67,5.75-16.28-7.79s-13.01,9.56-31.72,9.76c-18.7.21-30.7-6.1-30.7-6.1l20.33-28.87Z"/>
</svg>