<svg width="24" height="24" viewBox="0 0 24 24" fill="none" xmlns="http://www.w3.org/2000/svg">
<mask id="mask0_308_8482" style="mask-type:alpha" maskUnits="userSpaceOnUse" x="0" y="0" width="24" height="24">
<rect width="24" height="24" fill="#D9D9D9"/>
</mask>
<g mask="url(#mask0_308_8482)">
<path d="M13.5 21C12.3194 21 11.2137 20.7851 10.1826 20.3554C9.15162 19.9256 8.2544 19.345 7.49097 18.6137C6.72755 17.8823 6.12153 17.0228 5.67292 16.0351C5.22431 15.0474 5 13.9881 5 12.8571H6.88889C6.88889 14.6214 7.53032 16.1181 8.81319 17.347C10.0961 18.576 11.6583 19.1905 13.5 19.1905C15.3417 19.1905 16.9039 18.576 18.1868 17.347C19.4697 16.1181 20.1111 14.6214 20.1111 12.8571C20.1111 11.0929 19.4697 9.59623 18.1868 8.36726C16.9039 7.13829 15.3417 6.52381 13.5 6.52381H13.3583L14.8222 7.92619L13.5 9.2381L9.72222 5.61905L13.5 2L14.8222 3.3119L13.3583 4.71429H13.5C14.6806 4.71429 15.7863 4.92917 16.8174 5.35893C17.8484 5.78869 18.7456 6.36925 19.509 7.1006C20.2725 7.83194 20.8785 8.69147 21.3271 9.67917C21.7757 10.6669 22 11.7262 22 12.8571C22 13.9881 21.7757 15.0474 21.3271 16.0351C20.8785 17.0228 20.2725 17.8823 19.509 18.6137C18.7456 19.345 17.8484 19.9256 16.8174 20.3554C15.7863 20.7851 14.6806 21 13.5 21Z" fill="#1C1B1F"/>
</g>
</svg>
