<svg width="44" height="44" viewBox="0 0 44 44" fill="none" xmlns="http://www.w3.org/2000/svg">
<rect x="0.375" y="0.375" width="43.25" height="43.25" fill="#EC4A0A" stroke="#9C2A10" stroke-width="0.75"/>
<mask id="mask0_308_8473" style="mask-type:alpha" maskUnits="userSpaceOnUse" x="10" y="10" width="24" height="24">
<rect x="10" y="10" width="24" height="24" fill="#D9D9D9"/>
</mask>
<g mask="url(#mask0_308_8473)">
<path d="M26.175 23.0001H15C14.7167 23.0001 14.4792 22.9043 14.2875 22.7126C14.0958 22.5209 14 22.2834 14 22.0001C14 21.7168 14.0958 21.4793 14.2875 21.2876C14.4792 21.0959 14.7167 21.0001 15 21.0001H26.175L21.275 16.1001C21.075 15.9001 20.9792 15.6668 20.9875 15.4001C20.9958 15.1334 21.1 14.9001 21.3 14.7001C21.5 14.5168 21.7333 14.4209 22 14.4126C22.2667 14.4043 22.5 14.5001 22.7 14.7001L29.3 21.3001C29.4 21.4001 29.4708 21.5084 29.5125 21.6251C29.5542 21.7418 29.575 21.8668 29.575 22.0001C29.575 22.1334 29.5542 22.2584 29.5125 22.3751C29.4708 22.4918 29.4 22.6001 29.3 22.7001L22.7 29.3001C22.5167 29.4834 22.2875 29.5751 22.0125 29.5751C21.7375 29.5751 21.5 29.4834 21.3 29.3001C21.1 29.1001 21 28.8626 21 28.5876C21 28.3126 21.1 28.0751 21.3 27.8751L26.175 23.0001Z" fill="white"/>
</g>
</svg>
