<svg width="67" height="67" viewBox="0 0 67 67" fill="none" xmlns="http://www.w3.org/2000/svg">
<rect width="67" height="67" rx="33.5" fill="#EC4A0A"/>
<mask id="mask0_4056_26342" style="mask-type:alpha" maskUnits="userSpaceOnUse" x="13" y="13" width="41" height="41">
<rect x="13.5" y="13.5" width="40" height="40" fill="#D9D9D9"/>
</mask>
<g mask="url(#mask0_4056_26342)">
<path d="M28.8675 40.4396L33.5 35.7625L38.1604 40.4396L39.7308 38.8521L35.0983 34.175L39.7308 29.4866L38.1604 27.8991L33.5 32.5766L28.8675 27.8991L27.2692 29.4866L31.9296 34.175L27.2692 38.8521L28.8675 40.4396ZM25.2908 47.6662C24.5744 47.6662 23.9608 47.4108 23.45 46.9C22.9392 46.3891 22.6838 45.7757 22.6838 45.0596V22.8904H21V20.7966H28.2521V19.5254H38.7479V20.7966H46V22.8904H44.3163V45.0596C44.3163 45.7757 44.0608 46.3891 43.55 46.9C43.0392 47.4108 42.4256 47.6662 41.7092 47.6662H25.2908ZM42.2221 22.8904H24.7779V45.0596C24.7779 45.1876 24.8313 45.3051 24.9379 45.4121C25.0449 45.5187 25.1625 45.5721 25.2908 45.5721H41.7092C41.8375 45.5721 41.9551 45.5187 42.0621 45.4121C42.1688 45.3051 42.2221 45.1876 42.2221 45.0596V22.8904Z" fill="white"/>
</g>
</svg>
